{"title":"Match of the Day 2 - 28th September 2014 - HDTV X264 ","uid":11126692,"size":530308741,"categoryP":"video","categoryS":"tv_shows","magnet":"?xt=urn:btih:b495cf6be3e6884b1ad2791ab9def2ba24a73a43&amp;dn=Match+of+the+Day+2+-+28th+September+2014+-+HDTV+X264+&amp;tr=udp%3A%2F%2Ftracker.openbittorrent.com%3A80&amp;tr=udp%3A%2F%2Fopen.demonii.com%3A1337&amp;tr=udp%3A%2F%2Ftracker.coppersurfer.tk%3A6969&amp;tr=udp%3A%2F%2Fexodus.desync.com%3A6969","seeders":1,"leechers":0,"uploader":"rugbybill","files":2,"time":1411976095,"description":"SPORT: Match of the Day 2\nOn: BBC 1 HD\nDate: Sunday 28th September 2014\nTime: 22:30 to 23:20\n\nMark Chapman introduces highlights of the day's Premier League meeting between\nWest Brom and Burnley, plus a look back at all the action from Saturday's\nmatches. The Premier League has never featured a meeting between these sides -\nnewly promoted Burnley hope the first clash ends with a Clarets victory. The\nBaggies are equally keen to secure the spoils having spent the last season at\nthe wrong end of the Premier League table, only narrowly avoiding relegation.\nThere is also a look back at a busy Saturday in the Premier League, which\nfeatured a derby double with Liverpool taking on Everton and Arsenal facing\nnorth London neighbours Tottenham.\n\nSorry it's late, I was watching the baggies and fell asleep :D\n\nGeneral\nComplete name : 2014.09.28.MOTD2.hdtv.x264.mp4\nFormat : MPEG-4\nFormat profile : Base Media\nCodec ID : isom\nFile size : 506 MiB\nDuration : 49mn 4s\nOverall bit rate mode : Variable\nOverall bit rate : 1 441 Kbps\n\nVideo\nID : 1\nFormat : AVC\nFormat/Info : Advanced Video Codec\nFormat profile : &lt;a class=&quot;__cf_email__&quot; href=&quot;/cdn-cgi/l/email-protection&quot; data-cfemail=&quot;eda5848a85ada1dec3dc&quot;&gt;[email&amp;#160;protected]&lt;/a&gt;&lt;script data-cfhash='f9e31' type=&quot;text/javascript&quot;&gt;\n/* &lt;![CDATA[ */!function(){try{var t=&quot;currentScript&quot;in document?document.currentScript:function(){for(var t=document.getElementsByTagName(&quot;script&quot;),e=t.length;e--;)if(t[e].getAttribute(&quot;data-cfhash&quot;))return t[e]}();if(t&amp;&amp;t.previousSibling){var e,r,n,i,c=t.previousSibling,a=c.getAttribute(&quot;data-cfemail&quot;);if(a){for(e=&quot;&quot;,r=parseInt(a.substr(0,2),16),n=2;a.length-n;n+=2)i=parseInt(a.substr(n,2),16)^r,e+=String.fromCharCode(i);e=document.createTextNode(e),c.parentNode.replaceChild(e,c)}t.parentNode.removeChild(t);}}catch(u){}}()/* ]]&gt; */&lt;/script&gt;\nFormat settings, CABAC : Yes\nFormat settings, ReFrames : 8 frames\nCodec ID : avc1\nCodec ID/Info : Advanced Video Coding\nDuration : 49mn 4s\nBit rate : 1 300 Kbps\nMaximum bit rate : 5 184 Kbps\nWidth : 704 pixels\nHeight : 400 pixels\nDisplay aspect ratio : 16:9\nFrame rate mode : Constant\nFrame rate : 25.000 fps\nColor space : YUV\nChroma subsampling : 4:2:0\nBit depth : 8 bits\nScan type : Progressive\nBits/(Pixel*Frame) : 0.185\nStream size : 459 MiB (91%)\nWriting library : x264 core 142 r2431 ac76440\nEncoding settings : cabac=1 / ref=8 / deblock=1:0:0 /\nanalyse=0x3:0x133 / me=umh / subme=9 / psy=1 / psy_rd=1.00:0.00 / mixed_ref=1 /\nme_range=16 / chroma_me=1 / trellis=2 / 8x8dct=1 / cqm=0 / deadzone=21,11 /\nfast_pskip=1 / chroma_qp_offset=-2 / threads=6 / lookahead_threads=1 /\nsliced_threads=0 / nr=0 / decimate=1 / interlaced=0 / bluray_compat=0 /\nconstrained_intra=0 / bframes=3 / b_pyramid=2 / b_adapt=2 / b_bias=0 / direct=3\n/ weightb=1 / open_gop=0 / weightp=2 / keyint=250 / keyint_min=25 / scenecut=40\n/ intra_refresh=0 / rc_lookahead=60 / rc=abr / mbtree=1 / bitrate=1300 /\nratetol=1.0 / qcomp=0.60 / qpmin=0 / qpmax=69 / qpstep=4 / ip_ratio=1.40 /\naq=1:1.00\nAudio\n\nID : 2\nFormat : AAC\nFormat/Info : Advanced Audio Codec\nFormat profile : LC\nCodec ID : 40\nDuration : 49mn 4s\nBit rate mode : Variable\nBit rate : 128 Kbps\nMaximum bit rate : 143 Kbps\nChannel(s) : 2 channels\nChannel positions : Front: L R\nSampling rate : 48.0 KHz\nCompression mode : Lossy\nStream size : 44.9 MiB (9%)\nLanguage : English","torrent":{"xt":"urn:btih:b495cf6be3e6884b1ad2791ab9def2ba24a73a43","amp;dn":"Match+of+the+Day+2+-+28th+September+2014+-+HDTV+X264+","amp;tr":["udp%3A%2F%2Ftracker.openbittorrent.com%3A80","udp%3A%2F%2Fopen.demonii.com%3A1337","udp%3A%2F%2Ftracker.coppersurfer.tk%3A6969","udp%3A%2F%2Fexodus.desync.com%3A6969"],"infoHash":"b495cf6be3e6884b1ad2791ab9def2ba24a73a43","infoHashBuffer":{"type":"Buffer","data":[180,149,207,107,227,230,136,75,26,210,121,26,185,222,242,186,36,167,58,67]},"announce":[],"urlList":[]}}